<?xml version="1.0" encoding="utf-8"?>
<!-- Generator: Adobe Illustrator 22.1.0, SVG Export Plug-In . SVG Version: 6.00 Build 0)  -->
<svg version="1.1" id="Layer_1" xmlns="http://www.w3.org/2000/svg" xmlns:xlink="http://www.w3.org/1999/xlink" x="0px" y="0px"
	 viewBox="0 0 283.5 283.5" style="enable-background:new 0 0 283.5 283.5;" xml:space="preserve">
<style type="text/css">
	.st0{fill:#EDEDED;}
</style>
<title>ZEN_MASTER PMS_100mm</title>
<g>
	<path class="st0" d="M243.8,243.8H39.7V39.7h204.1V243.8z M50.5,232.9h182.4V50.5H50.5V232.9z"/>
	<path class="st0" d="M167.7,181v41.1h-20.1v-77.2h9.2l46.3,40.4v-40.4h19v77.2h-6.7L167.7,181z"/>
	<polygon class="st0" points="222.1,61.4 222.1,76.9 168.9,76.9 168.9,90.9 210.1,90.9 210.1,106.7 168.9,106.7 168.9,121.9 
		222.1,121.9 222.1,138.5 147.6,138.5 147.6,61.4 	"/>
	<polygon class="st0" points="140.8,121.9 140.8,138.5 61.4,138.5 61.4,131.1 105.4,76.9 61.5,76.9 61.5,61.4 140.8,61.4 
		140.8,65.8 95.5,121.9 	"/>
</g>
</svg>
