<?xml version="1.0" encoding="utf-8"?>
<!-- Generator: Adobe Illustrator 22.1.0, SVG Export Plug-In . SVG Version: 6.00 Build 0)  -->
<svg version="1.1" id="Layer_1" xmlns="http://www.w3.org/2000/svg" xmlns:xlink="http://www.w3.org/1999/xlink" x="0px" y="0px"
	 viewBox="0 0 1080 1080" style="enable-background:new 0 0 1080 1080;" xml:space="preserve">
<style type="text/css">
	.st0{fill:#222222;}
</style>
<g>
	<path class="st0" d="M595.8,275.6c-29.9-30.6-65.4-54.6-106.2-72.1s-84.2-26.4-130.2-26.4c-46.5,0-90.1,8.7-130.6,26.4
		c-40.5,17.5-76.1,41.5-106.5,72.1c-30.6,30.6-54.6,66.2-72.1,107c-17.6,40.8-26.4,84.2-26.4,130.2v390h177.8v-390
		c0-21.7,4-42.2,12.3-61.2c8.1-19,19.5-35.5,33.9-49.4c14.4-13.9,31.3-24.9,50.4-33.1c19-8.1,39.5-12.3,61.2-12.3
		c21.2,0,41.3,4,60.3,12.3c19,8.2,35.6,19.2,49.9,33.1c14.1,13.9,25.4,30.4,33.6,49.4c8.2,19,12.3,39.5,12.3,61.2v24.4
		c14.1-84.3,58.1-158.6,120.6-211.7C624.3,307.7,610.9,291,595.8,275.6z M515.6,654.6v248.2h172.2
		C598.1,850.9,533.3,760.6,515.6,654.6z"/>
	<g>
		<circle class="st0" cx="865.1" cy="596" r="191"/>
	</g>
</g>
</svg>
